# xmcd
#
# Track frame offsets: 
#        150
#        9571
#        22997
#        36858
#        47808
#        59685
#        72526
#        85669
#        98117
#        108548
#        120508
#        135495
#        147497
#        155431
#        170407
#        183071
#        194707
#        207489
#        219133
#        230637
#        242026
#        252562
#        263428
#        282121
#        295732
#        311551
#
# Disc length: 4183 seconds
#
# Revision: 0
# Processed by: cddbd v1.5.2PL0 Copyright (c) Steve Scherf et al.
# Submitted via: ExactAudioCopy v0.95b3
#
DISCID=7d10551a
DTITLE=The Beatles  - France 1965  FLAC
DYEAR=1900
DGENRE=
TTITLE0=Twist And Shout
TTITLE1=Shes A Woman
TTITLE2=Im A Loser
TTITLE3=Cant Buy Me Love
TTITLE4=Babys In Black
TTITLE5=I Wanna Be Your Man
TTITLE6=A Hard Days Night
TTITLE7=Everybodys Trying To Be My Baby
TTITLE8=Rock And Roll Music
TTITLE9=I Feel Fine
TTITLE10=Ticket To Ride
TTITLE11=Long Tall Sally
TTITLE12=Twist And Shout
TTITLE13=Shes A Woman
TTITLE14=Im A Loser
TTITLE15=Cant Buy Me Love
TTITLE16=Babys In Black
TTITLE17=I Wanna Be Your Man
TTITLE18=A Hard Days Night
TTITLE19=Everybodys Trying To Be My Baby
TTITLE20=Rock And Roll Music
TTITLE21=I Feel Fine
TTITLE22=Ticket To Ride
TTITLE23=Long Tall Sally
TTITLE24=Interview
TTITLE25=Interview
EXTD=
EXTT0=
EXTT1=
EXTT2=
EXTT3=
EXTT4=
EXTT5=
EXTT6=
EXTT7=
EXTT8=
EXTT9=
EXTT10=
EXTT11=
EXTT12=
EXTT13=
EXTT14=
EXTT15=
EXTT16=
EXTT17=
EXTT18=
EXTT19=
EXTT20=
EXTT21=
EXTT22=
EXTT23=
EXTT24=
EXTT25=
PLAYORDER=
